<svg xmlns="http://www.w3.org/2000/svg" xmlns:xlink="http://www.w3.org/1999/xlink" width="51.22" height="46.52" viewBox="0 0 51.22 46.52"><defs><style>.cls-1{fill:url(#linear-gradient);}</style><linearGradient id="linear-gradient" y1="23.26" x2="51.22" y2="23.26" gradientUnits="userSpaceOnUse"><stop offset="0" stop-color="#001532"/><stop offset="1" stop-color="#001532"/></linearGradient></defs><g id="Layer_2" data-name="Layer 2"><g id="Layer_1-2" data-name="Layer 1"><path d="M0,37.24H7.94a1.82,1.82,0,0,0,2-2V0H20.59V42.52q0,4-4,4H0Z"/><path d="M47.41,29.93a5.14,5.14,0,0,1,3.81,5.28v7.31q0,4-4,4H28q-4,0-4-4V33.24H34.57v3.3l-3.94.7h7.94c1.15,0,1.91-.57,1.91-1.52,0-.64-.13-1-.76-1.27L27.71,30A5.28,5.28,0,0,1,24,24.59v-7.3q0-4,4-4H47.22q4,0,4,4v9.27H40.54v-2a1.72,1.72,0,0,0-2-2h-2c-1.27,0-2,.57-2,1.77a1.34,1.34,0,0,0,1,1.27Z"/><path class="cls-1" d="M0,37.24H7.94a1.82,1.82,0,0,0,2-2V0H20.59V42.52q0,4-4,4H0Z"/><path class="cls-1" d="M47.41,29.93a5.14,5.14,0,0,1,3.81,5.28v7.31q0,4-4,4H28q-4,0-4-4V33.24H34.57v3.3l-3.94.7h7.94c1.15,0,1.91-.57,1.91-1.52,0-.64-.13-1-.76-1.27L27.71,30A5.28,5.28,0,0,1,24,24.59v-7.3q0-4,4-4H47.22q4,0,4,4v9.27H40.54v-2a1.72,1.72,0,0,0-2-2h-2c-1.27,0-2,.57-2,1.77a1.34,1.34,0,0,0,1,1.27Z"/></g></g></svg>