<svg xmlns="http://www.w3.org/2000/svg" xmlns:xlink="http://www.w3.org/1999/xlink" width="68.37" height="62.92" viewBox="0 0 68.37 62.92"><defs><style>.cls-1,.cls-3,.cls-5{fill-rule:evenodd;}.cls-1{fill:url(#linear-gradient);}.cls-2{fill:url(#linear-gradient-2);}.cls-3{fill:url(#linear-gradient-3);}.cls-4{fill:url(#linear-gradient-4);}.cls-5{fill:url(#linear-gradient-5);}</style><linearGradient id="linear-gradient" x1="40.9" y1="50.84" x2="65.91" y2="50.84" gradientUnits="userSpaceOnUse"><stop offset="0" stop-color="#001532"/><stop offset="1" stop-color="#001532"/></linearGradient><linearGradient id="linear-gradient-2" x1="43.15" y1="12.78" x2="68.37" y2="12.78" xlink:href="#linear-gradient"/><linearGradient id="linear-gradient-3" x1="1.91" y1="51.26" x2="23.66" y2="51.26" xlink:href="#linear-gradient"/><linearGradient id="linear-gradient-4" x1="0" y1="12.8" x2="23.66" y2="12.8" xlink:href="#linear-gradient"/><linearGradient id="linear-gradient-5" x1="2.5" y1="32.36" x2="63.61" y2="32.36" xlink:href="#linear-gradient"/></defs><g id="Layer_2" data-name="Layer 2"><g id="Layer_1-2" data-name="Layer 1"><path class="cls-1" d="M50.56,54.25l11.91-12h0l3.44-3.45-.18.26c-2.62,3.61-3.89,5.37-2.87,9.78h0a9.35,9.35,0,0,1-14.54,9.77l2.82-1.31a6.76,6.76,0,0,0,7.45-1.47,6.84,6.84,0,0,0,1.47-7.47.77.77,0,0,0-1.18-.28l-8.32,6.15Zm-1.72,1.49h0l-7.94,7.1a20.2,20.2,0,0,1,1.75-2c1.76-1.85,3.51-3.69,2.44-6.28a9.45,9.45,0,0,1,2-10.18,9.36,9.36,0,0,1,10.16-2,8.14,8.14,0,0,1,1.91,1l-2.82,1.3a6.93,6.93,0,0,0-7.47,1.49,6.68,6.68,0,0,0-.08,9.57Z"/><path class="cls-2" d="M66.71,10.46a6.36,6.36,0,0,0-.55-5.23,6.44,6.44,0,0,0-6.94-3.09A6.35,6.35,0,0,0,54.42,0a6.44,6.44,0,0,0-6.14,4.46A6.46,6.46,0,0,0,44.81,15.1a6.36,6.36,0,0,0,.55,5.23,6.44,6.44,0,0,0,6.94,3.09,6.35,6.35,0,0,0,4.8,2.14,6.42,6.42,0,0,0,6.14-4.46A6.34,6.34,0,0,0,67.5,18a6.43,6.43,0,0,0-.79-7.55ZM57.1,23.89A4.78,4.78,0,0,1,54,22.78l.15-.08,5.09-2.94a.82.82,0,0,0,.42-.73V11.86l2.15,1.24s0,0,0,.06V19.1a4.8,4.8,0,0,1-4.79,4.79ZM46.81,19.5a4.74,4.74,0,0,1-.57-3.21l.15.09,5.09,2.94a.82.82,0,0,0,.83,0l6.22-3.59v2.48a.09.09,0,0,1,0,.07l-5.15,3a4.8,4.8,0,0,1-6.54-1.75ZM45.47,8.38A4.8,4.8,0,0,1,48,6.28v6.06a.82.82,0,0,0,.42.72l6.21,3.59-2.15,1.24a.06.06,0,0,1-.07,0l-5.15-3a4.79,4.79,0,0,1-1.75-6.54ZM63.14,12.5,56.93,8.91l2.15-1.24a.06.06,0,0,1,.07,0l5.15,3a4.8,4.8,0,0,1-.74,8.65V13.22a.83.83,0,0,0-.42-.72Zm2.14-3.22a.54.54,0,0,0-.15-.09L60,6.25a.78.78,0,0,0-.83,0L53,9.83V7.35a.09.09,0,0,1,0-.07l5.15-3a4.79,4.79,0,0,1,7.11,5ZM51.82,13.7l-2.15-1.24a.07.07,0,0,1,0-.06V6.46a4.79,4.79,0,0,1,7.86-3.68l-.15.09-5.1,2.94a.79.79,0,0,0-.41.72V13.7ZM53,11.18l2.77-1.59,2.77,1.59v3.2L55.76,16,53,14.38Z"/><path class="cls-3" d="M12.79,40.65A10.87,10.87,0,0,0,9.35,61.84c.54.1.75-.23.75-.52s0-1.11,0-2c-2.73.5-3.44-.67-3.65-1.28a4,4,0,0,0-1.12-1.53c-.38-.21-.92-.71,0-.73A2.2,2.2,0,0,1,7,56.88a2.34,2.34,0,0,0,3.17.9,2.28,2.28,0,0,1,.69-1.46C8.41,56.05,5.88,55.11,5.88,51A4.2,4.2,0,0,1,7,48a3.92,3.92,0,0,1,.1-2.88s.92-.29,3,1.11a10.42,10.42,0,0,1,5.43,0c2.08-1.41,3-1.11,3-1.11A3.89,3.89,0,0,1,18.63,48,4.23,4.23,0,0,1,19.75,51c0,4.18-2.55,5.1-5,5.37a2.55,2.55,0,0,1,.74,2c0,1.46,0,2.63,0,3s.21.63.75.52a10.88,10.88,0,0,0-3.46-21.19Z"/><path class="cls-4" d="M4.64,16.71,9.31,14.1l.07-.23-.07-.12H9.07l-.78-.05-2.65-.07-2.32-.12-2.25-.12L.5,13.28,0,12.56l.05-.35.47-.31.69,0,1.49.12L5,12.21l1.63.09L9,12.59h.38l0-.17-.12-.09-.1-.1L6.87,10.67,4.36,9,3,8l-.71-.47L2,7.09l-.15-1,.64-.71.88.07.21,0,.88.68L6.32,7.64,8.76,9.49l.36.28.14-.09,0-.08-.16-.26L7.82,6.88,6.39,4.42l-.63-1-.17-.62a2.44,2.44,0,0,1-.1-.71l.72-1L6.63,1l1,.14L8,1.43l.61,1.42,1,2.21,1.54,3,.47.9.24.81.07.23h.17V9.87l.12-1.71.23-2.06.24-2.65.07-.76.38-.9.71-.47.62.26.47.68-.07.43-.26,1.82L14,7.38l-.35,1.94h.21l.24-.26,1-1.28,1.63-2,.71-.82L18.24,4l.54-.43h1l.73,1.12L20.2,5.89l-1,1.32-.88,1.12L17,10l-.76,1.35.07.09h.17l2.84-.61,1.52-.26,1.8-.31.82.38.1.38-.33.8-1.94.47L19,12.78l-3.39.78,0,0,0,.07,1.52.15.66,0h1.61l3,.24.78.47.45.64-.07.48-1.21.61-1.61-.38L17,15l-1.28-.3h-.19v.09l1.09,1.07,2,1.77,2.51,2.3.12.57-.31.47-.33,0-2.18-1.66-.85-.71L15.63,17h-.12v.16l.43.64,2.32,3.48.12,1.07-.17.33-.61.24L17,22.73l-1.38-1.9L14.16,18.7l-1.11-1.94-.12.09L12.24,24l-.3.36-.71.28-.6-.47-.33-.71L10.63,22,11,20.1l.31-1.52.28-1.87.17-.62v0H11.6l-1.42,2L8.05,20.93l-1.7,1.8-.41.16-.71-.35.08-.67.37-.54,2.37-3,1.42-1.87.95-1.09,0-.12h-.07L4.07,19.29,3,19.43,2.49,19l0-.71L2.77,18l1.9-1.3Z"/><path class="cls-5" d="M33.05,62.92h0A30.56,30.56,0,0,0,2.5,32.36h0A30.56,30.56,0,0,0,33.05,1.8h0A30.57,30.57,0,0,0,63.61,32.36h0A30.56,30.56,0,0,0,33.05,62.92Z"/></g></g></svg>