<svg xmlns="http://www.w3.org/2000/svg" width="63.27" height="71.46" viewBox="0 0 63.27 71.46"><defs><style>.cls-1{fill:#4c4c4c;}.cls-2{fill:#001532;}.cls-3{fill:#32435a;}.cls-4{fill:#192c46;}</style></defs><g id="Layer_2" data-name="Layer 2"><g id="Layer_1-2" data-name="Layer 1"><path id="path6" class="cls-1" d="M63.27,50V16.67L34.39,0V12.8L45.7,19.35c.45.3.45.9,0,1L32.3,28.14a1.17,1.17,0,0,1-1.19,0L17.72,20.39a.57.57,0,0,1,0-1L29,12.8V0L0,16.67V50l11-6.4V30.52a.7.7,0,0,1,.89-.6l13.4,7.74a1.14,1.14,0,0,1,.59,1.05V54.19a.7.7,0,0,1-.89.59L13.7,48.23l-11,6.4L31.56,71.46,60.44,54.78l-11-6.4L38.11,54.93c-.45.3-.89,0-.89-.59V38.85a1.25,1.25,0,0,1,.59-1l13.4-7.74c.45-.3.89,0,.89.6v13.1Z"/><path id="path8" class="cls-2" d="M31.56,71.46,60.44,54.78l-11-6.4L38.11,54.93c-.45.3-.89,0-.89-.59V38.85a1.25,1.25,0,0,1,.59-1l13.4-7.74c.45-.3.89,0,.89.6v13.1l11,6.4V16.67L31.56,35Z"/><path id="path10" class="cls-3" d="M34.39,0V12.8L45.7,19.35c.45.3.45.9,0,1L32.3,28.14a1.17,1.17,0,0,1-1.19,0L17.72,20.39a.57.57,0,0,1,0-1L29,12.8V0L0,16.67,31.56,35,63.12,16.67Z"/><path id="path12" class="cls-4" d="M25.16,54.93,13.84,48.38l-11,6.4L31.71,71.46V35L0,16.67V50l11-6.4V30.52a.7.7,0,0,1,.89-.6l13.4,7.74a1.14,1.14,0,0,1,.59,1.05V54.19C26.05,54.78,25.61,55.23,25.16,54.93Z"/></g></g></svg>