<?xml version="1.0" encoding="utf-8"?>
<!-- Generator: Adobe Illustrator 24.1.2, SVG Export Plug-In . SVG Version: 6.00 Build 0)  -->
<svg version="1.1" id="Layer_1" xmlns="http://www.w3.org/2000/svg" xmlns:xlink="http://www.w3.org/1999/xlink" x="0px" y="0px"
	 viewBox="0 0 156.6 101.1" style="enable-background:new 0 0 156.6 101.1;" xml:space="preserve">
<style type="text/css">
	.st0{fill:#1E1C2D;}
</style>
<g id="Layer_2_1_">
	<g id="Layer_1-2">
		<polygon class="st0" points="156.6,27.6 156.6,29.4 143.2,14.1 143.2,98.8 142.1,97.7 139.5,95 59.5,3.6 2.1,3.6 2.1,2.5 60,2.5 
			60.1,2.6 140.4,94.2 142,95.8 142,11.1 		"/>
		<path class="st0" d="M146.4,97.3c0,2.1-1.7,3.8-3.8,3.8c-2.1,0-3.8-1.7-3.8-3.8c0-2.1,1.7-3.8,3.8-3.8c0,0,0,0,0,0
			C144.7,93.5,146.4,95.2,146.4,97.3C146.4,97.3,146.4,97.3,146.4,97.3z"/>
		<path class="st0" d="M7.7,3.8C7.7,6,6,7.7,3.8,7.7S0,6,0,3.9S1.7,0,3.8,0c0,0,0,0,0,0C5.9,0,7.7,1.7,7.7,3.8z"/>
	</g>
</g>
</svg>
