<svg xmlns="http://www.w3.org/2000/svg" viewBox="0 0 156.55 101.13"><defs><style>.cls-1{fill:#1e1c2d;}</style></defs><g id="Layer_2" data-name="Layer 2"><g id="Layer_1-2" data-name="Layer 1"><polygon class="cls-1" points="156.55 28.21 156.55 30.06 143.16 14.09 143.16 98.75 142.15 97.71 139.51 94.97 51.46 3.61 2.14 3.61 2.14 2.45 51.95 2.45 52.13 2.62 140.37 94.17 141.98 95.84 141.98 10.85 156.55 28.21"/><path class="cls-1" d="M146.41,97.3a3.84,3.84,0,1,1-3.83-3.84A3.82,3.82,0,0,1,146.41,97.3Z"/><path class="cls-1" d="M7.67,3.83A3.84,3.84,0,1,1,3.83,0,3.84,3.84,0,0,1,7.67,3.83Z"/></g></g></svg>