<svg xmlns="http://www.w3.org/2000/svg" xmlns:xlink="http://www.w3.org/1999/xlink" width="70.74" height="52.92" viewBox="0 0 70.74 52.92"><defs><style>.cls-1{fill:url(#linear-gradient);}.cls-2{fill:url(#linear-gradient-2);}</style><linearGradient id="linear-gradient" y1="25.94" x2="37.1" y2="25.94" gradientUnits="userSpaceOnUse"><stop offset="0" stop-color="#001532"/><stop offset="1" stop-color="#001532"/></linearGradient><linearGradient id="linear-gradient-2" x1="42.17" y1="32.52" x2="70.74" y2="32.52" xlink:href="#linear-gradient"/></defs><g id="Layer_2" data-name="Layer 2"><g id="Layer_1-2" data-name="Layer 1"><path class="cls-1" d="M10.73,35.5V50.66c0,1.14-.1,1.23-1.25,1.23H.54a.55.55,0,0,1-.52-.5,5.15,5.15,0,0,1,0-.56V1.35c0-1,.05-1,1-1L13.61,0A41.53,41.53,0,0,1,22,.54a21.29,21.29,0,0,1,7.16,2.58,15.38,15.38,0,0,1,7.26,9.72,19.58,19.58,0,0,1-.08,10.33,15.47,15.47,0,0,1-7.9,9.74,22.38,22.38,0,0,1-8,2.41,54,54,0,0,1-9.26.18Zm0-9.31c.24,0,.44.06.64.06,1.43,0,2.87.06,4.3,0a24.81,24.81,0,0,0,3.21-.35,10.4,10.4,0,0,0,5-2.18,6,6,0,0,0,2-3,10,10,0,0,0,.25-4.54,6.86,6.86,0,0,0-4.26-5.41,13,13,0,0,0-4.84-1c-1.94,0-3.87,0-5.81,0a4.87,4.87,0,0,0-.51.05Z"/><path class="cls-2" d="M42.19,45.63c0-1.31,0-2.61,0-3.92,0-1,.35-1.18,1.19-.69a22.1,22.1,0,0,0,7.77,2.68,19.61,19.61,0,0,0,4.9.22A12.67,12.67,0,0,0,58,43.58,3.73,3.73,0,0,0,59,43.11a2.1,2.1,0,0,0,.43-3.28A6.91,6.91,0,0,0,57,38.22c-1.08-.48-2.16-.93-3.25-1.35a30.88,30.88,0,0,1-5.52-2.67,13.8,13.8,0,0,1-3.55-3,10.33,10.33,0,0,1-2.09-9.25c1.06-4.45,4-7.2,8.19-8.72a19.28,19.28,0,0,1,6.08-1.06,33.51,33.51,0,0,1,9.2.94c.61.16,1.21.36,1.81.57s.8.48.81,1.17v7.66c0,.82-.44,1.1-1.21.75A23.31,23.31,0,0,0,64.25,22a24.55,24.55,0,0,0-7.9-1,7.77,7.77,0,0,0-2.29.46A2.08,2.08,0,0,0,53.27,25a6.8,6.8,0,0,0,1.66,1.21c1.14.58,2.32,1.1,3.51,1.58a44.74,44.74,0,0,1,6.13,2.83,18,18,0,0,1,2.55,1.79,10.14,10.14,0,0,1,3.62,8.42,11.42,11.42,0,0,1-1,4.49,11.57,11.57,0,0,1-5.15,5.4,17,17,0,0,1-5.94,1.87,32.47,32.47,0,0,1-13-.86c-.87-.24-1.71-.62-2.56-.94a1.26,1.26,0,0,1-.88-1.34c0-1.28,0-2.57,0-3.85Z"/></g></g></svg>