<svg xmlns="http://www.w3.org/2000/svg" xmlns:xlink="http://www.w3.org/1999/xlink" viewBox="0 0 404.03 536.08"><defs><style>.cls-1{opacity:0.3;}.cls-2{fill:url(#linear-gradient);}.cls-3{fill:url(#linear-gradient-2);}.cls-4{fill:url(#linear-gradient-3);}</style><linearGradient id="linear-gradient" x1="162.1" y1="-103.67" x2="162.1" y2="526.48" gradientUnits="userSpaceOnUse"><stop offset="0" stop-color="#fff"/><stop offset="1" stop-color="#001532"/></linearGradient><linearGradient id="linear-gradient-2" x1="241.61" y1="-103.67" x2="241.61" y2="526.48" xlink:href="#linear-gradient"/><linearGradient id="linear-gradient-3" x1="202.01" y1="-103.67" x2="202.01" y2="526.48" xlink:href="#linear-gradient"/></defs><g id="Layer_2" data-name="Layer 2"><g id="Layer_1-2" data-name="Layer 1"><g class="cls-1"><path class="cls-2" d="M190.27,28.58V229.66c-11.55-6.2-23.08-12.59-33.73-18.8a124.42,124.42,0,0,0-22.61-10.33V0H134Z"/><path class="cls-3" d="M269.78,357.26V536.08l-56.35-28.62v-175l21.77,11.33A156.06,156.06,0,0,0,269.78,357.26Z"/><path class="cls-4" d="M404,220.87c-2.07-64.9-44.39-111-89-126.72C263.8,76,213.41,86.07,213.41,86.07V241.88c20,10.37,38.17,19.3,49.61,24.8a12.76,12.76,0,0,0,2.14.86,26.79,26.79,0,0,0,4.65,1.57V142.46c4.71-.07,19.08.43,35.3,9.51,18.8,10.36,40.53,32.23,39.88,69-.42,22.52-9,39.24-21.29,50.25l-.22.21c-19.15,17.08-47.24,20.51-67.9,10.65-25.66-12.29-72.25-35.81-107.63-56.46s-65.26-12.72-65.26-12.72c-.64.14-1.35.28-2.07.5-15.94,3.57-35.95,13.15-51.89,30.3A100.82,100.82,0,0,0,7.22,278.55c-.22.57-.36,1.07-.57,1.57C2.43,292.48,0,306.85,0,323.57v1.36C.43,345,4.93,362.24,12.08,377a120.08,120.08,0,0,0,27.73,36.67.07.07,0,0,1,.07.07c.43.36.79.72,1.22,1.07a150,150,0,0,0,42.81,26.09c.57.29,1.14.5,1.78.79,42.32,16.22,86.91,9.43,99.92,6.86,2.43-.43,3.79-.79,3.79-.79v-.07h.86V362l-4.65-2.36-51.67-26.16V393.4c-.57,0-2.22,0-4.65-.14-7.43-.43-22.08-2.07-34.52-9.08a62.6,62.6,0,0,1-9.93-7c-15.87-13.44-33.67-39.38-23-72.12a53.58,53.58,0,0,1,10.37-18.72c0-.07.07-.07.14-.15a44.44,44.44,0,0,1,11.15-9.29c20-11.86,46.46-7.72,59.46-.64,11.51,6.29,56.68,29.66,100.14,52.32,34.3,17.94,65.25,20.51,98.13,2.71a121.84,121.84,0,0,0,25.66-18.72l.21-.22C388.74,291.63,405.25,260.82,404,220.87ZM134.8,291.34a6,6,0,0,0-.86-.5V322.5l51.67,26.16,4.65,2.36V320.43C164,306.78,142.37,295.49,134.8,291.34Z"/></g></g></g></svg>