<svg xmlns="http://www.w3.org/2000/svg" width="362.97" height="26.51" viewBox="0 0 362.97 26.51"><defs><style>.cls-1{fill:#eee;}</style></defs><g id="Layer_2" data-name="Layer 2"><g id="Layer_1-2" data-name="Layer 1"><polygon class="cls-1" points="69.31 0 53.21 0 26.7 26.51 42.8 26.51 69.31 0"/><polygon class="cls-1" points="96.01 0 79.9 0 53.39 26.51 69.5 26.51 96.01 0"/><polygon class="cls-1" points="122.71 0 106.6 0 80.09 26.51 96.19 26.51 122.71 0"/><polygon class="cls-1" points="149.4 0 133.29 0 106.78 26.51 122.89 26.51 149.4 0"/><polygon class="cls-1" points="176.1 0 159.99 0 133.48 26.51 149.59 26.51 176.1 0"/><polygon class="cls-1" points="202.79 0 186.69 0 160.17 26.51 176.28 26.51 202.79 0"/><polygon class="cls-1" points="229.49 0 213.38 0 186.87 26.51 202.98 26.51 229.49 0"/><polygon class="cls-1" points="256.18 0 240.08 0 213.56 26.51 229.67 26.51 256.18 0"/><polygon class="cls-1" points="282.88 0 266.77 0 240.26 26.51 256.37 26.51 282.88 0"/><polygon class="cls-1" points="309.57 0 293.47 0 266.96 26.51 283.06 26.51 309.57 0"/><polygon class="cls-1" points="336.27 0 320.16 0 293.65 26.51 309.76 26.51 336.27 0"/><polygon class="cls-1" points="362.97 0 346.86 0 320.35 26.51 336.46 26.51 362.97 0"/><polygon class="cls-1" points="42.62 0 26.51 0 0 26.51 16.11 26.51 42.62 0"/></g></g></svg>