<svg xmlns="http://www.w3.org/2000/svg" xmlns:xlink="http://www.w3.org/1999/xlink" width="79.03" height="64.12" viewBox="0 0 79.03 64.12"><defs><style>.cls-1{fill:url(#linear-gradient);}.cls-2{fill:url(#linear-gradient-2);}</style><linearGradient id="linear-gradient" y1="32.06" x2="79.03" y2="32.06" gradientUnits="userSpaceOnUse"><stop offset="0" stop-color="#001532"/><stop offset="1" stop-color="#001532"/></linearGradient><linearGradient id="linear-gradient-2" x1="40.92" y1="36.29" x2="62.31" y2="36.29" xlink:href="#linear-gradient"/></defs><g id="Layer_2" data-name="Layer 2"><g id="Layer_1-2" data-name="Layer 1"><path class="cls-1" d="M24.37,38.64l-.26.19L10.54,50l-1.6,1.3a6.93,6.93,0,0,1-3.66,1.6,5.21,5.21,0,0,1-3-.46A3.94,3.94,0,0,1,0,48.88,5.67,5.67,0,0,1,1.1,45.34a7,7,0,0,1,1.51-1.6L13.78,35.2,29.69,23a17.94,17.94,0,0,0,1.4-1.14l-.33,0H17c-.68,0-1.36,0-2,0a4.41,4.41,0,0,1-2.09-.64,3,3,0,0,1-1.32-3.78,4.85,4.85,0,0,1,1.89-2.3A6.49,6.49,0,0,1,17.16,14h31.1l0-.07L48,13.66,38.46,5.89a4.94,4.94,0,0,1-.87-.84,2.49,2.49,0,0,1-.13-3A4.24,4.24,0,0,1,40,.25a5.71,5.71,0,0,1,3.4,0A4.53,4.53,0,0,1,44.72,1l7.77,6q6.88,5.28,13.77,10.57c1.44,1.11,2.89,2.2,4.28,3.37a24,24,0,0,1,7.35,10.89A21.55,21.55,0,0,1,79,37.28a23.43,23.43,0,0,1-6.85,18.36,27.14,27.14,0,0,1-11.9,7.19,29.78,29.78,0,0,1-10.15,1.25,28.81,28.81,0,0,1-9-1.81A26.67,26.67,0,0,1,28,52a21.87,21.87,0,0,1-3.4-8.08,20.35,20.35,0,0,1-.35-2.81,18,18,0,0,1,.13-2.2A2.05,2.05,0,0,1,24.37,38.64ZM51.9,52.21c.39,0,1.06-.06,1.73-.12.45,0,.9-.12,1.34-.2a17.19,17.19,0,0,0,8.61-4.28,14.57,14.57,0,0,0,4-6.22,14.09,14.09,0,0,0-2.27-13,16.87,16.87,0,0,0-11.78-6.44,17.83,17.83,0,0,0-6.26.41,16.32,16.32,0,0,0-9.64,6.32,13.59,13.59,0,0,0-1.54,14.17,14.8,14.8,0,0,0,5.68,6.5A18,18,0,0,0,51.9,52.21Z"/><path class="cls-2" d="M51.65,26.61A11,11,0,0,1,59,29.32,9,9,0,0,1,62.3,36.8a8.66,8.66,0,0,1-2.14,5.31,10.44,10.44,0,0,1-6.09,3.61,11.56,11.56,0,0,1-7.46-.88,9.77,9.77,0,0,1-4.23-3.74,8.62,8.62,0,0,1-.14-9.37A10.25,10.25,0,0,1,48.76,27,10.8,10.8,0,0,1,51.65,26.61Z"/></g></g></svg>