<svg xmlns="http://www.w3.org/2000/svg" xmlns:xlink="http://www.w3.org/1999/xlink" width="69.71" height="46.52" viewBox="0 0 69.71 46.52"><defs><style>.cls-1{fill:url(#linear-gradient);}</style><linearGradient id="linear-gradient" y1="23.26" x2="69.71" y2="23.26" gradientUnits="userSpaceOnUse"><stop offset="0" stop-color="#001532"/><stop offset="1" stop-color="#001532"/></linearGradient></defs><g id="Layer_2" data-name="Layer 2"><g id="Layer_1-2" data-name="Layer 1"><path d="M29.23,29.93V42.52q0,4-4,4H4q-4,0-4-4V4Q0,0,4,0H25.23q4,0,4,4V16.65H18.62V11.31a1.81,1.81,0,0,0-2-2H12.65a1.82,1.82,0,0,0-2,2V36.54l-3.94.7h9.92a1.81,1.81,0,0,0,2-2V29.93Z"/><path d="M35.84,13h6.8L47.15,0h9.92L52.55,13h2.74L59.8,0h9.91L65.14,13h2.6v9.28H61.9l-1.85,5.34h3.63v9.27H56.81l-3.37,9.6H43.59l3.31-9.6H44.17l-3.31,9.6H31l3.3-9.6H31.83V27.65h5.73l1.84-5.34H35.84Zm14.3,14.62L52,22.31H49.31l-1.9,5.34Z"/><path class="cls-1" d="M29.23,29.93V42.52q0,4-4,4H4q-4,0-4-4V4Q0,0,4,0H25.23q4,0,4,4V16.65H18.62V11.31a1.81,1.81,0,0,0-2-2H12.65a1.82,1.82,0,0,0-2,2V36.54l-3.94.7h9.92a1.81,1.81,0,0,0,2-2V29.93Z"/><path class="cls-1" d="M35.84,13h6.8L47.15,0h9.92L52.55,13h2.74L59.8,0h9.91L65.14,13h2.6v9.28H61.9l-1.85,5.34h3.63v9.27H56.81l-3.37,9.6H43.59l3.31-9.6H44.17l-3.31,9.6H31l3.3-9.6H31.83V27.65h5.73l1.84-5.34H35.84Zm14.3,14.62L52,22.31H49.31l-1.9,5.34Z"/></g></g></svg>