<svg xmlns="http://www.w3.org/2000/svg" width="156.55" height="101.13" viewBox="0 0 156.55 101.13"><defs><style>.cls-1{fill:#d7d7d7;}</style></defs><g id="Layer_2" data-name="Layer 2"><g id="Layer_1-2" data-name="Layer 1"><polygon class="cls-1" points="0 28.21 0 30.06 13.39 14.09 13.39 98.75 14.4 97.71 17.03 94.97 105.09 3.61 154.41 3.61 154.41 2.45 104.59 2.45 104.42 2.62 16.18 94.17 14.57 95.84 14.57 10.85 0 28.21"/><path class="cls-1" d="M10.14,97.3A3.84,3.84,0,1,0,14,93.46,3.82,3.82,0,0,0,10.14,97.3Z"/><path class="cls-1" d="M148.88,3.83A3.84,3.84,0,1,0,152.71,0,3.84,3.84,0,0,0,148.88,3.83Z"/></g></g></svg>