<svg xmlns="http://www.w3.org/2000/svg" xmlns:xlink="http://www.w3.org/1999/xlink" width="63.78" height="52.89" viewBox="0 0 63.78 52.89"><defs><style>.cls-1{fill:url(#linear-gradient);}.cls-2{fill:url(#linear-gradient-2);}.cls-3{fill:url(#linear-gradient-3);}</style><linearGradient id="linear-gradient" y1="27.59" x2="51.01" y2="27.59" gradientUnits="userSpaceOnUse"><stop offset="0" stop-color="#001532"/><stop offset="1" stop-color="#001532"/></linearGradient><linearGradient id="linear-gradient-2" x1="52.44" y1="33.61" x2="63.14" y2="33.61" xlink:href="#linear-gradient"/><linearGradient id="linear-gradient-3" x1="51.82" y1="5.8" x2="63.78" y2="5.8" xlink:href="#linear-gradient"/></defs><g id="Layer_2" data-name="Layer 2"><g id="Layer_1-2" data-name="Layer 1"><path class="cls-1" d="M51,52.89H38.88L35,41.79H15.7L11.87,52.88H0c.09-.28.16-.51.25-.74Q2.88,45,5.52,37.89L13.7,15.81l4.74-12.9c.25-.68.16-.62.89-.62H31.74c.72,0,.63,0,.89.64Q37.69,16.72,42.76,30.5q4,10.92,8.06,21.85C50.88,52.5,50.93,52.66,51,52.89ZM19,31.83c.78.14,12.21.11,12.7,0C29.62,25.2,27.14,18.72,25.36,12,23.57,18.73,21.13,25.22,19,31.83Z"/><path class="cls-2" d="M63.14,52.88H52.44V14.49c.48-.15,9.76-.2,10.7,0Z"/><path class="cls-3" d="M57.82,11.59a5.73,5.73,0,0,1-6-5.53,5.54,5.54,0,0,1,4.94-6,6.23,6.23,0,0,1,3.93.59,5.44,5.44,0,0,1,3.08,5.45,5.37,5.37,0,0,1-3.45,5A5.73,5.73,0,0,1,57.82,11.59Z"/></g></g></svg>