<svg xmlns="http://www.w3.org/2000/svg" width="616.53" height="26.51" viewBox="0 0 616.53 26.51"><defs><style>.cls-1{fill:#eee;}</style></defs><g id="Layer_2" data-name="Layer 2"><g id="Layer_1-2" data-name="Layer 1"><polygon class="cls-1" points="300.88 0 284.77 0 258.26 26.51 274.37 26.51 300.88 0"/><polygon class="cls-1" points="329.57 0 313.47 0 286.96 26.51 303.06 26.51 329.57 0"/><polygon class="cls-1" points="358.27 0 342.16 0 315.65 26.51 331.76 26.51 358.27 0"/><polygon class="cls-1" points="386.97 0 370.86 0 344.35 26.51 360.46 26.51 386.97 0"/><polygon class="cls-1" points="415.66 0 399.55 0 373.04 26.51 389.15 26.51 415.66 0"/><polygon class="cls-1" points="444.36 0 428.25 0 401.74 26.51 417.85 26.51 444.36 0"/><polygon class="cls-1" points="473.05 0 456.95 0 430.44 26.51 446.54 26.51 473.05 0"/><polygon class="cls-1" points="501.75 0 485.64 0 459.13 26.51 475.24 26.51 501.75 0"/><polygon class="cls-1" points="530.45 0 514.34 0 487.83 26.51 503.93 26.51 530.45 0"/><polygon class="cls-1" points="559.14 0 543.03 0 516.52 26.51 532.63 26.51 559.14 0"/><polygon class="cls-1" points="587.84 0 571.73 0 545.22 26.51 561.33 26.51 587.84 0"/><polygon class="cls-1" points="616.53 0 600.42 0 573.91 26.51 590.02 26.51 616.53 0"/><polygon class="cls-1" points="272.18 0 256.08 0 229.56 26.51 245.67 26.51 272.18 0"/><polygon class="cls-1" points="243.49 0 227.38 0 200.87 26.51 216.98 26.51 243.49 0"/><polygon class="cls-1" points="214.79 0 198.69 0 172.17 26.51 188.28 26.51 214.79 0"/><polygon class="cls-1" points="186.1 0 169.99 0 143.48 26.51 159.59 26.51 186.1 0"/><polygon class="cls-1" points="157.4 0 141.29 0 114.78 26.51 130.89 26.51 157.4 0"/><polygon class="cls-1" points="128.71 0 112.6 0 86.09 26.51 102.19 26.51 128.71 0"/><polygon class="cls-1" points="100.01 0 83.9 0 57.39 26.51 73.5 26.51 100.01 0"/><polygon class="cls-1" points="71.31 0 55.21 0 28.7 26.51 44.8 26.51 71.31 0"/><polygon class="cls-1" points="42.62 0 26.51 0 0 26.51 16.11 26.51 42.62 0"/></g></g></svg>