<svg xmlns="http://www.w3.org/2000/svg" xmlns:xlink="http://www.w3.org/1999/xlink" viewBox="0 0 997.37 301.73"><defs><style>.cls-1{fill:url(#linear-gradient);}.cls-2{fill:#eee;}.cls-3{fill:#dbdbdb;}</style><linearGradient id="linear-gradient" y1="150.86" x2="997.37" y2="150.86" gradientUnits="userSpaceOnUse"><stop offset="0" stop-color="#001532"/><stop offset="1" stop-color="#001532"/></linearGradient></defs><g id="Layer_2" data-name="Layer 2"><g id="Layer_1-2" data-name="Layer 1"><path class="cls-1" d="M997.37,64.59V252a33.52,33.52,0,0,1-33.52,33.52H324.5A23.24,23.24,0,0,0,308.44,292L305,295.29a23.24,23.24,0,0,1-16.06,6.44H154.37a23.21,23.21,0,0,1-17.63-8.11,23.26,23.26,0,0,0-17.63-8.1H33.52A33.52,33.52,0,0,1,0,252V64.59A33.52,33.52,0,0,1,33.52,31.07H435.2A17.53,17.53,0,0,0,447.55,26L468.48,5.1A17.53,17.53,0,0,1,480.83,0H886.65A17.49,17.49,0,0,1,899,5.1L919.92,26a17.52,17.52,0,0,0,12.31,5.1l31.62,0A33.52,33.52,0,0,1,997.37,64.59Z"/><path class="cls-2" d="M967.57,167.9a1.6,1.6,0,0,1-1.12-2.73l16.22-16.23a1.6,1.6,0,0,1,2.26,2.26L968.7,167.43A1.6,1.6,0,0,1,967.57,167.9Z"/><path class="cls-2" d="M13.56,65.55A1.59,1.59,0,0,1,12,64,21.57,21.57,0,0,1,33.52,42.41h95a1.6,1.6,0,1,1,0,3.19h-95A18.38,18.38,0,0,0,15.16,64,1.59,1.59,0,0,1,13.56,65.55Z"/><path class="cls-2" d="M90,272.91H33.52A21.56,21.56,0,0,1,12,251.37V64a1.6,1.6,0,1,1,3.19,0V251.37a18.37,18.37,0,0,0,18.36,18.35H90a1.6,1.6,0,0,1,0,3.19Z"/><path class="cls-2" d="M331.36,272.91H90a1.6,1.6,0,1,1,0-3.19H331.36a1.6,1.6,0,1,1,0,3.19Z"/><path class="cls-3" d="M509.21,272.91H331.36a1.6,1.6,0,1,1,0-3.19H509.21a1.6,1.6,0,1,1,0,3.19Z"/><path class="cls-2" d="M983.8,138.4a1.6,1.6,0,0,1-1.6-1.6V64A18.38,18.38,0,0,0,963.85,45.6h-37.2a1.6,1.6,0,0,1,0-3.19h37.2A21.58,21.58,0,0,1,985.4,64V136.8A1.6,1.6,0,0,1,983.8,138.4Z"/><path class="cls-2" d="M445.88,45.6H128.52a1.6,1.6,0,0,1,0-3.19H445.88a1.6,1.6,0,0,1,0,3.19Z"/><path class="cls-2" d="M494.19,114.55H871.71a23.16,23.16,0,0,0,18.91-9.8l34.64-49.12s5.17-6.75,7.59-8.21c2.66-1.61,9-1.81,9-1.81l1.94-3.2s-18,.15-23.39-.58a92.16,92.16,0,0,1-12.08-3.31,20.42,20.42,0,0,0-6.35-1H622.31a15.46,15.46,0,0,1-10.17-3.81l-1-1a15.59,15.59,0,0,0-10.95-4.5H574.67a15.58,15.58,0,0,0-10.8,4.35h0a15.62,15.62,0,0,1-10.65,4.34l-75.75.58h-4.42a23.46,23.46,0,0,0-8.52,1.6A74.67,74.67,0,0,1,457,41.73c-2.77.61-26.44.68-26.44.68l15.29,3.22h0a5.42,5.42,0,0,1,2.29,9l-.68.69a5.45,5.45,0,0,0-1.53,3.78v.2a23.14,23.14,0,0,0,4.92,14.27L476,105.67A23.1,23.1,0,0,0,494.19,114.55Z"/></g></g></svg>