<?xml version="1.0" encoding="utf-8"?>
<!-- Generator: Adobe Illustrator 24.1.2, SVG Export Plug-In . SVG Version: 6.00 Build 0)  -->
<svg version="1.1" id="Layer_1" xmlns="http://www.w3.org/2000/svg" xmlns:xlink="http://www.w3.org/1999/xlink" x="0px" y="0px"
	 viewBox="0 0 2133.7 902.8" style="enable-background:new 0 0 2133.7 902.8;" xml:space="preserve">
<style type="text/css">
	.st0{fill:#FFFFFF;}
	.st1{fill:none;stroke:#FFFFFF;stroke-width:10;}
	.st2{fill:#001532;}
	.st3{fill:none;stroke:#00AEEF;stroke-width:3;stroke-miterlimit:10;}
	.st4{fill:#E6E6E6;}
</style>
<g id="lb-ovalbottom">
	<path class="st0" d="M2122,882H11.7c302-97,664.9-153.6,1055.2-153.6S1820,785,2122,882z"/>
	<path id="overlaypath" class="st1" d="M11.7,902l-6.1-39c314.6-101.1,681.6-154.6,1061.2-154.6s746.6,53.4,1061.3,154.5l-6.1,39"/>
</g>
<g id="lb-sidescreen">
	<path id="screen_1_" class="st2" d="M117.1,38.7L464.6,98c17.5,3,30.3,18.1,30.3,35.9v431.6c0,17.7-12.8,32.9-30.3,35.9
		l-347.5,59.1c-22.2,3.8-42.5-13.3-42.5-35.8V74.6C74.6,52.1,94.9,34.9,117.1,38.7z"/>
	<path class="st0" d="M111,661.6c-8.6,0-17-3-23.8-8.7c-8.3-7.1-13.1-17.3-13.1-28.2V74.6c0-10.9,4.8-21.2,13.1-28.2s19.3-10,30-8.2
		l347.5,59.3c17.8,3,30.7,18.3,30.7,36.4v431.6c0,18-12.9,33.3-30.7,36.4L117.2,661C115.1,661.4,113,661.6,111,661.6z M111,38.7
		c-8.4,0-16.6,3-23.1,8.5C79.7,54,75.1,64,75.1,74.6v550.1c0,10.6,4.6,20.6,12.7,27.4c8.1,6.8,18.7,9.7,29.2,7.9l347.5-59.3
		c17.3-3,29.8-17.8,29.8-35.4V133.9c0-17.5-12.6-32.4-29.8-35.4L117,39.2C115,38.9,113,38.7,111,38.7z"/>
	<path id="ledpath" class="st3" d="M127.1,28.7L474.6,88c17.5,3,30.3,18.1,30.3,35.9v431.6c0,17.7-12.8,32.9-30.3,35.9l-347.5,59.1
		c-22.2,3.8-42.5-13.3-42.5-35.9v-550C84.6,42.1,104.9,24.9,127.1,28.7z"/>
</g>
<g id="lb-mainscreen">
	<path id="ledeffect" class="st2" d="M1394.7,209.1v219.3l5.7,6.4v90.3c0,12.2-6,22.9-15.1,29.5c-4.7,3.4-10.3,5.7-16.3,6.5
		c-73.1-3.9-148-6.8-224.5-8.6v-0.1l-2.8-2.6H785.4l-2.8,2.6v0.1c-76.5,1.8-151.4,4.7-224.5,8.6c-6-0.8-11.6-3.1-16.3-6.5
		c-9.2-6.6-15.1-17.4-15.1-29.5v-89l5.7-6.4V207.9l-5.7-6.4v-89c0-10.9,4.8-20.8,12.5-27.4c5.4-4.6,12.1-7.8,19.5-8.7
		c73.6,4,149.1,6.9,226.2,8.7l3.2,2.4l1,0.8H842c40.2,0.5,80.8,0.7,121.5,0.7c40.8,0,81.3-0.2,121.6-0.7h52.9l1-0.8l3.2-2.4
		c77.1-1.8,152.6-4.7,226.2-8.7c7.4,0.9,14.1,4,19.5,8.7c7.7,6.7,12.5,16.5,12.5,27.4v90.3L1394.7,209.1z"/>
	<path class="st2" d="M1389.2,215.3v206.8l11.1,12.7v90.3c0,12.2-6,22.9-15.1,29.5c-4.7,3.4-10.3,5.7-16.3,6.5
		c-73.1-3.9-148-6.8-224.5-8.6c-1.5,0-3.1-0.1-4.6-0.1l-2.7-2.5l-3.3-3.2l-2.7-2.5H795.7l-2.7,2.5l-3.3,3.2l-2.7,2.5
		c-1.5,0-3.1,0.1-4.6,0.1c-76.5,1.8-151.4,4.7-224.5,8.6c-6-0.8-11.6-3.1-16.3-6.5c-9.2-6.6-15.1-17.4-15.1-29.5v-89l12.2-13.9
		V215.4l-12.2-13.9v-89c0-10.9,4.8-20.8,12.5-27.4c5.4-4.6,12.1-7.8,19.5-8.7c73.6,4,149.1,6.9,226.2,8.7c1,0,2.1,0,3.1,0.1l4,3.1
		l6.3,4.9l0.9,0.7h49.9c37.9,0.5,76.1,0.7,114.5,0.7s76.6-0.2,114.5-0.7h49.9l0.9-0.7l6.3-4.9l4-3.1c1,0,2.1,0,3.1-0.1
		c77.1-1.8,152.6-4.7,226.2-8.7c7.4,0.9,14.1,4,19.5,8.7c7.7,6.7,12.5,16.5,12.5,27.4v90.3L1389.2,215.3z"/>
	<path class="st0" d="M1368.8,559.1c-74.6-4-151.4-7-228.2-8.7l-8.6-8.3H795l-8.6,8.3c-76.8,1.8-153.6,4.7-228.2,8.7
		c-5.5-0.8-10.7-2.9-15.2-6.1c-9-6.4-14.3-16.9-14.3-27.9v-88.3l12.2-13.9V214.5l-12.2-13.9v-88.3c0-9.9,4.3-19.4,11.8-25.9
		c5.2-4.5,11.5-7.3,18.2-8.2c74.6,4,151.4,7,228.5,8.7l11.3,8.8H849c37.7,0.5,76.2,0.7,114.5,0.7s76.8-0.2,114.5-0.7h50.5l1.5-1.2
		l9.8-7.7c77.1-1.8,153.9-4.7,228.5-8.7c6.8,0.9,13.1,3.7,18.2,8.2c7.5,6.5,11.8,16,11.8,25.9v89.5l-11.1,12.7v208.4l11.1,12.7V525
		c0,11-5.3,21.5-14.3,27.9C1379.5,556.2,1374.3,558.3,1368.8,559.1z"/>
	<path id="screen" class="st2" d="M1368.6,556.1c-74.2-4-150.5-6.9-226.8-8.7l-8.7-8.3H793.7l-8.7,8.3
		c-76.3,1.8-152.6,4.7-226.8,8.7c-4.9-0.7-9.6-2.6-13.6-5.5c-8.2-5.9-13.1-15.4-13.1-25.5V438l12.2-13.9V213.5l-12.2-13.9v-87.1
		c0-9.1,3.9-17.7,10.8-23.7c4.7-4,10.3-6.6,16.4-7.4c74.2,4,150.7,6.9,227.3,8.7l10,7.8l1.4,1.1H849c37.7,0.5,76.2,0.7,114.5,0.7
		s76.8-0.2,114.5-0.7h51.5l2.3-1.8l9-7.1c76.7-1.8,153.1-4.7,227.3-8.7c6.1,0.8,11.7,3.4,16.4,7.4c6.9,6,10.8,14.6,10.8,23.7v88.4
		l-11.1,12.7v210.6l11.1,12.7v88.4c0,10.1-4.9,19.6-13.1,25.5C1378.2,553.5,1373.5,555.4,1368.6,556.1z"/>
</g>
<g id="lb-tittle">
	<path class="st4" d="M1984.3,509.1h-511.7c-16.2-16.1-25.2-25.1-41.4-41.3l0,0c16.2-16.1,25.2-25.1,41.4-41.3h511.7
		c16.1,16.1,25.2,25.2,41.3,41.3l0,0C2009.5,484,2000.4,493,1984.3,509.1z"/>
	<path id="_x31_" class="st2" d="M1981.5,506.6h-506.2c-15.1-15.1-23.6-23.6-38.8-38.8l0,0c15.1-15.1,23.6-23.6,38.8-38.8h506.2
		c15.1,15.1,23.6,23.6,38.8,38.8l0,0C2005.2,483,1996.7,491.5,1981.5,506.6z"/>
</g>
<g id="lb-button">
	<g>
		<g>
			<path class="st0" d="M1698.7,377.7c-77-1-154.1-1-231.1,0c-4-3.9-6.3-6-10.4-9.9c-0.2-10.5-0.2-15.8-0.4-26.3
				c3.9-4,6.2-6.2,10.1-10.2c77.5-1,154.9-1,232.4,0c4,4,6.2,6.2,10.1,10.2c-0.2,10.5-0.2,15.8-0.4,26.3
				C1705,371.7,1702.7,373.8,1698.7,377.7z"/>
		</g>
	</g>
</g>
</svg>
