<?xml version="1.0" encoding="utf-8"?>
<!-- Generator: Adobe Illustrator 24.1.2, SVG Export Plug-In . SVG Version: 6.00 Build 0)  -->
<svg version="1.1" id="Layer_1" xmlns="http://www.w3.org/2000/svg" xmlns:xlink="http://www.w3.org/1999/xlink" x="0px" y="0px"
	 viewBox="0 0 245 52.9" style="enable-background:new 0 0 245 52.9;" xml:space="preserve">
<style type="text/css">
	.st0{enable-background:new    ;}
	.st1{fill:#1E1C2D;}
	.st2{fill:url(#SVGID_1_);}
</style>
<g id="Layer_2_1_">
	<g id="Layer_1-2">
		<g class="st0">
			<path class="st1" d="M75.9,24.9l-5.2,1.7v11.1h-6.9V7.2h6.9v12.5L68.3,21l7.6-2.6V7.2h6.9v30.5h-6.9V24.9z"/>
			<path class="st1" d="M85.4,37.7V7.2h6.9v30.5H85.4z"/>
			<path class="st1" d="M101.8,26.6v4.5l-2.6,0.5h10.4v6.1H94.9V7.2h14.8v6.1h-7.9v6.4L99.5,21l8.2-2.8v6.4L101.8,26.6z"/>
			<path class="st1" d="M130.6,35.1c0,1.7-0.9,2.6-2.6,2.6h-13.9c-1.7,0-2.6-0.9-2.6-2.6V7.2h6.9v23.9l-2.6,0.5h6.5
				c0.9,0,1.3-0.5,1.3-1.3V7.2h6.9V35.1z"/>
			<path class="st1" d="M149.6,27.9v9.7h-6.9V7.2h16.5c1.7,0,2.6,0.9,2.6,2.6v11.5c0,1.7-0.8,2.9-2.5,3.5L149.6,27.9z M149.6,13.3
				v7.8l-2.4,1.2l6.4-2c0.8-0.2,1.2-0.8,1.2-1.7v-4c0-0.9-0.5-1.3-1.3-1.3H149.6z"/>
			<path class="st1" d="M175.6,24.9l-5.2,1.7v11.1h-6.9V7.2h6.9v12.5L168,21l7.6-2.6V7.2h6.9v30.5h-6.9V24.9z"/>
			<path class="st1" d="M204.3,37.7h-6.9V24.9l-5.2,1.7v11.1h-6.9V9.8c0-1.7,0.9-2.6,2.6-2.6h13.9c1.7,0,2.6,0.9,2.6,2.6V37.7z
				 M192.1,19.7l-2.4,1.3l7.6-2.6v-3.8c0-0.9-0.5-1.3-1.3-1.3h-2.6c-0.9,0-1.3,0.5-1.3,1.3V19.7z"/>
			<path class="st1" d="M221.2,24l3.8-16.8h10.6v30.5h-6.9V20.8l0.8-5.8l-5.2,22.6h-6.2L212.9,15l0.8,5.8v16.9h-6.9V7.2h10.6
				L221.2,24z"/>
		</g>
		<path class="st1" d="M19.2,2.8v19.8c-1.1-0.6-2.3-1.2-3.3-1.9c-0.7-0.4-1.5-0.7-2.2-1V0l0,0L19.2,2.8z"/>
		<path class="st1" d="M13.7,29.4c0.9,0.5,2.9,1.5,5.1,2.7v2.3l-5.1-2.6l-0.5-0.2v-2.4h0.1L13.7,29.4z"/>
		<path class="st1" d="M39.8,22.2c0.1,3.2-1,6.3-3.2,8.6l0,0c-0.9,0.9-1.9,1.7-3,2.3c-3.2,1.8-6.3,1.5-9.7-0.3
			c-4.3-2.2-8.7-4.5-9.9-5.2c-1.9-0.9-4-0.9-5.9,0.1C8,27.9,7.8,28,7.6,28.2l0,0c-0.7,0.6-1.2,1.4-1.5,2.3c-0.8,2.6,0.1,5.4,2.3,7.1
			c0.3,0.3,0.6,0.5,1,0.7c1.2,0.6,2.5,0.9,3.9,0.9v-6.5l0.5,0.2l5.1,2.6v9.1h-0.1C17.4,44.9,16,45,14.6,45c-2,0-4.1-0.3-6-1H8.3
			c-1.5-0.6-3-1.5-4.2-2.6L4,41.3l0,0c-2.5-2.2-4-5.4-4-8.8v-0.1c0-1.5,0.2-2.9,0.7-4.3V28c0.5-1.5,1.4-2.9,2.6-3.9
			C4.6,22.9,6.2,22,8,21.6c0.1,0,0.1,0,0.2,0c2.2-0.4,4.5,0,6.4,1.3c3.5,2,8.1,4.4,10.6,5.6c2.5,1.1,5.3,0.5,7.2-1.5l0,0
			c1.1-1.3,1.6-2.9,1.6-4.5c0.1-2.8-1.4-5.5-3.9-6.8c-0.9-0.5-1.9-0.8-3-0.9h-0.5V27c-0.2-0.1-0.5-0.1-0.7-0.2
			c-1.1-0.5-2.9-1.4-4.9-2.5V9c0.2,0,0.3-0.1,0.5-0.1c3.2-0.5,6.5-0.2,9.6,0.9C36.3,11.8,39.7,16.7,39.8,22.2z"/>
		<path class="st1" d="M27.1,35.2v17.6L21.5,50V32.8l2.1,1.1C24.7,34.5,25.9,34.9,27.1,35.2z"/>
		
			<linearGradient id="SVGID_1_" gradientUnits="userSpaceOnUse" x1="4.3449" y1="1070.1866" x2="36.9649" y2="1035.1266" gradientTransform="matrix(1 0 0 1 0 -1026)">
			<stop  offset="0" style="stop-color:#65499C"/>
			<stop  offset="7.000000e-02" style="stop-color:#884E97"/>
			<stop  offset="0.16" style="stop-color:#AD5492"/>
			<stop  offset="0.24" style="stop-color:#CA588E"/>
			<stop  offset="0.33" style="stop-color:#DE5B8B"/>
			<stop  offset="0.42" style="stop-color:#EB5D8A"/>
			<stop  offset="0.5" style="stop-color:#EF5E89"/>
			<stop  offset="0.59" style="stop-color:#EF6085"/>
			<stop  offset="0.69" style="stop-color:#F06778"/>
			<stop  offset="0.79" style="stop-color:#F27164"/>
			<stop  offset="0.89" style="stop-color:#F48047"/>
			<stop  offset="0.99" style="stop-color:#F79422"/>
			<stop  offset="1" style="stop-color:#F7961D"/>
		</linearGradient>
		<path class="st2" d="M40.3,21.8c-0.1-5.6-3.6-10.5-8.8-12.5c-3.2-1.1-6.7-1.3-10-0.8v15.4c2,1,3.8,1.9,4.9,2.5l0.2,0.1
			c0.1,0.1,0.3,0.1,0.5,0.2V14.1c1.2,0,2.4,0.3,3.5,0.9c2.5,1.3,4,4,3.9,6.8c0,1.9-0.7,3.7-2.1,5l0,0c-1.8,1.6-4.5,2-6.7,1
			c-2.5-1.2-7.1-3.5-10.6-5.6c-1.9-1.2-4.2-1.7-6.5-1.3H8.4c-2,0.5-3.7,1.5-5.1,3c-0.9,1-1.7,2.2-2.1,3.4l-0.1,0.1
			c-0.4,1.4-0.7,2.8-0.6,4.3V32c0,1.8,0.4,3.5,1.2,5.1c0.7,1.4,1.6,2.6,2.7,3.6l0,0l0.1,0.1c1.3,1.1,2.7,2,4.2,2.6l0.2,0.1
			c3.2,1.1,6.6,1.3,9.9,0.7l0.4-0.1h0.1v-8.4l-0.5-0.2l-5.1-2.6v5.9h-0.5c-1.2,0-2.4-0.4-3.4-0.9c-0.4-0.2-0.7-0.4-1-0.7
			c-2.2-1.7-3.1-4.5-2.3-7.1c0.2-0.7,0.5-1.3,1-1.8l0,0c0.3-0.4,0.7-0.7,1.1-0.9c1.8-1,4-1,5.9-0.1c1.1,0.6,5.6,2.9,9.9,5.2
			c3.4,1.8,6.4,2,9.7,0.3c0.9-0.5,1.8-1.1,2.5-1.9l0,0C39.1,28.5,40.4,25.2,40.3,21.8z M13.8,28.8L13.8,28.8l-0.1,3l5.1,2.6l0.5,0.2
			v-3C16.6,30.3,14.5,29.1,13.8,28.8L13.8,28.8z"/>
		<g class="st0">
			<path d="M68.6,49.1c-0.4,0.1-1.2,0.4-2.2,0.4c-1.1,0-1.9-0.3-2.6-0.9c-0.6-0.6-1-1.5-1-2.6c0-2.1,1.5-3.6,3.8-3.6
				c0.8,0,1.5,0.2,1.8,0.3l-0.2,0.7c-0.4-0.2-0.8-0.3-1.6-0.3c-1.7,0-2.8,1.1-2.8,2.8c0,1.8,1.1,2.8,2.7,2.8c0.6,0,1-0.1,1.2-0.2
				v-2.1h-1.4v-0.7h2.3V49.1z"/>
			<path d="M70,42.4c0.5-0.1,1.1-0.1,1.7-0.1c1,0,1.6,0.2,2,0.6c0.4,0.3,0.6,0.8,0.6,1.3c0,0.9-0.6,1.5-1.3,1.8v0
				c0.5,0.2,0.9,0.7,1,1.4c0.2,1,0.4,1.7,0.5,1.9h-0.9c-0.1-0.2-0.3-0.8-0.5-1.7c-0.2-1-0.6-1.3-1.4-1.4h-0.9v3H70V42.4z M70.9,45.6
				h0.9c1,0,1.6-0.5,1.6-1.3c0-0.9-0.7-1.3-1.6-1.3c-0.4,0-0.8,0-0.9,0.1V45.6z"/>
			<path d="M76.8,47.2l-0.7,2.2h-0.9l2.4-7h1.1l2.4,7h-1l-0.8-2.2H76.8z M79.1,46.5l-0.7-2c-0.2-0.5-0.3-0.9-0.4-1.3h0
				c-0.1,0.4-0.2,0.8-0.4,1.3l-0.7,2H79.1z"/>
			<path d="M82,42.4c0.4-0.1,1-0.1,1.7-0.1c0.9,0,1.6,0.2,2,0.6c0.4,0.3,0.6,0.8,0.6,1.5c0,0.6-0.2,1.1-0.5,1.5
				c-0.5,0.5-1.3,0.8-2.2,0.8c-0.3,0-0.5,0-0.7-0.1v2.8H82V42.4z M83,45.8c0.2,0.1,0.4,0.1,0.8,0.1c1.1,0,1.8-0.5,1.8-1.5
				c0-0.9-0.7-1.4-1.7-1.4c-0.4,0-0.7,0-0.9,0.1V45.8z"/>
			<path d="M88.5,42.3v2.9h3.4v-2.9h0.9v7h-0.9v-3.3h-3.4v3.3h-0.9v-7H88.5z"/>
			<path d="M95.3,42.3v7h-0.9v-7H95.3z"/>
			<path d="M101.8,49.1c-0.3,0.2-1,0.3-1.9,0.3c-2,0-3.5-1.3-3.5-3.6c0-2.2,1.5-3.7,3.7-3.7c0.9,0,1.4,0.2,1.7,0.3l-0.2,0.7
				c-0.3-0.2-0.8-0.3-1.4-0.3c-1.6,0-2.7,1.1-2.7,2.9c0,1.7,1,2.8,2.7,2.8c0.6,0,1.1-0.1,1.5-0.3L101.8,49.1z"/>
			<path d="M105.2,42.4c0.6-0.1,1.2-0.1,1.9-0.1c1.3,0,2.2,0.3,2.8,0.9c0.6,0.6,1,1.4,1,2.5c0,1.1-0.4,2.1-1,2.7
				c-0.7,0.7-1.7,1-3.1,1c-0.6,0-1.2,0-1.6-0.1V42.4z M106.1,48.7c0.2,0,0.6,0.1,0.9,0.1c1.9,0,3-1.1,3-3c0-1.7-0.9-2.7-2.8-2.7
				c-0.5,0-0.8,0-1.1,0.1V48.7z"/>
			<path d="M115.7,46.1H113v2.5h3v0.8h-4v-7h3.8v0.8H113v2.2h2.7V46.1z"/>
			<path d="M117.1,48.3c0.4,0.3,1,0.5,1.6,0.5c0.9,0,1.5-0.5,1.5-1.2c0-0.7-0.4-1-1.3-1.4c-1.1-0.4-1.9-1-1.9-2
				c0-1.1,0.9-1.9,2.3-1.9c0.7,0,1.2,0.2,1.6,0.3l-0.3,0.7c-0.2-0.1-0.7-0.3-1.3-0.3c-1,0-1.3,0.6-1.3,1.1c0,0.7,0.4,1,1.4,1.4
				c1.2,0.5,1.8,1,1.8,2.1c0,1.1-0.8,2-2.5,2c-0.7,0-1.4-0.2-1.8-0.4L117.1,48.3z"/>
			<path d="M123.3,42.3v7h-0.9v-7H123.3z"/>
			<path d="M130.2,49.1c-0.4,0.1-1.2,0.4-2.2,0.4c-1.1,0-1.9-0.3-2.6-0.9c-0.6-0.6-1-1.5-1-2.6c0-2.1,1.5-3.6,3.8-3.6
				c0.8,0,1.5,0.2,1.8,0.3l-0.2,0.7c-0.4-0.2-0.8-0.3-1.6-0.3c-1.7,0-2.8,1.1-2.8,2.8c0,1.8,1.1,2.8,2.7,2.8c0.6,0,1-0.1,1.2-0.2
				v-2.1h-1.4v-0.7h2.3V49.1z"/>
			<path d="M131.6,49.4v-7h1l2.3,3.6c0.5,0.8,0.9,1.6,1.3,2.3l0,0c-0.1-0.9-0.1-1.8-0.1-2.9v-2.9h0.9v7H136l-2.2-3.6
				c-0.5-0.8-1-1.6-1.3-2.3l0,0c0.1,0.9,0.1,1.7,0.1,2.9v3H131.6z"/>
			<path d="M142.1,46.1h-2.7v2.5h3v0.8h-4v-7h3.8v0.8h-2.9v2.2h2.7V46.1z"/>
			<path d="M143.6,42.4c0.5-0.1,1.1-0.1,1.7-0.1c1,0,1.6,0.2,2,0.6c0.4,0.3,0.6,0.8,0.6,1.3c0,0.9-0.6,1.5-1.3,1.8v0
				c0.5,0.2,0.9,0.7,1,1.4c0.2,1,0.4,1.7,0.5,1.9h-0.9c-0.1-0.2-0.3-0.8-0.5-1.7c-0.2-1-0.6-1.3-1.4-1.4h-0.9v3h-0.9V42.4z
				 M144.5,45.6h0.9c1,0,1.6-0.5,1.6-1.3c0-0.9-0.7-1.3-1.6-1.3c-0.4,0-0.8,0-0.9,0.1V45.6z"/>
			<path d="M153.5,46.2v0.7H151v-0.7H153.5z"/>
			<path d="M162.2,49.1c-0.4,0.1-1.2,0.4-2.2,0.4c-1.1,0-1.9-0.3-2.6-0.9c-0.6-0.6-1-1.5-1-2.6c0-2.1,1.5-3.6,3.8-3.6
				c0.8,0,1.5,0.2,1.8,0.3l-0.2,0.7c-0.4-0.2-0.8-0.3-1.6-0.3c-1.7,0-2.8,1.1-2.8,2.8c0,1.8,1.1,2.8,2.7,2.8c0.6,0,1-0.1,1.2-0.2
				v-2.1h-1.4v-0.7h2.3V49.1z"/>
			<path d="M164.7,47.2l-0.7,2.2h-0.9l2.4-7h1.1l2.4,7h-1l-0.8-2.2H164.7z M167,46.5l-0.7-2c-0.2-0.5-0.3-0.9-0.4-1.3h0
				c-0.1,0.4-0.2,0.8-0.4,1.3l-0.7,2H167z"/>
			<path d="M175.9,46.3c-0.1-1-0.1-2.2-0.1-3h0c-0.2,0.8-0.5,1.7-0.9,2.7l-1.2,3.4h-0.7l-1.1-3.3c-0.3-1-0.6-1.9-0.8-2.7h0
				c0,0.9-0.1,2.1-0.1,3.1l-0.2,3h-0.9l0.5-7h1.2l1.2,3.4c0.3,0.9,0.5,1.6,0.7,2.4h0c0.2-0.7,0.4-1.5,0.7-2.4l1.3-3.4h1.2l0.4,7H176
				L175.9,46.3z"/>
			<path d="M182,46.1h-2.7v2.5h3v0.8h-4v-7h3.8v0.8h-2.9v2.2h2.7V46.1z"/>
			<path d="M185.7,42.4c0.6-0.1,1.2-0.1,1.9-0.1c1.3,0,2.2,0.3,2.8,0.9c0.6,0.6,1,1.4,1,2.5c0,1.1-0.4,2.1-1,2.7
				c-0.7,0.7-1.7,1-3.1,1c-0.6,0-1.2,0-1.6-0.1V42.4z M186.6,48.7c0.2,0,0.6,0.1,0.9,0.1c1.9,0,3-1.1,3-3c0-1.7-0.9-2.7-2.8-2.7
				c-0.5,0-0.8,0-1.1,0.1V48.7z"/>
			<path d="M196.3,46.1h-2.7v2.5h3v0.8h-4v-7h3.8v0.8h-2.9v2.2h2.7V46.1z"/>
			<path d="M199.4,49.4l-2.3-7h1l1.1,3.5c0.3,0.9,0.6,1.8,0.8,2.6h0c0.2-0.8,0.5-1.7,0.8-2.6l1.2-3.5h1l-2.5,7H199.4z"/>
			<path d="M207.3,46.1h-2.7v2.5h3v0.8h-4v-7h3.8v0.8h-2.9v2.2h2.7V46.1z"/>
			<path d="M208.8,42.3h0.9v6.3h3v0.8h-3.9V42.3z"/>
			<path d="M219.3,45.8c0,2.4-1.5,3.7-3.3,3.7c-1.9,0-3.2-1.4-3.2-3.6c0-2.2,1.4-3.7,3.3-3.7C218.1,42.2,219.3,43.7,219.3,45.8z
				 M213.9,45.9c0,1.5,0.8,2.8,2.2,2.8c1.4,0,2.3-1.3,2.3-2.9c0-1.4-0.7-2.9-2.2-2.9C214.6,43,213.9,44.4,213.9,45.9z"/>
			<path d="M220.5,42.4c0.4-0.1,1-0.1,1.7-0.1c0.9,0,1.6,0.2,2,0.6c0.4,0.3,0.6,0.8,0.6,1.5c0,0.6-0.2,1.1-0.5,1.5
				c-0.5,0.5-1.3,0.8-2.2,0.8c-0.3,0-0.5,0-0.7-0.1v2.8h-0.9V42.4z M221.4,45.8c0.2,0.1,0.4,0.1,0.8,0.1c1.1,0,1.8-0.5,1.8-1.5
				c0-0.9-0.7-1.4-1.7-1.4c-0.4,0-0.7,0-0.9,0.1V45.8z"/>
			<path d="M229.7,46.1H227v2.5h3v0.8h-4v-7h3.8v0.8H227v2.2h2.7V46.1z"/>
			<path d="M231.2,42.4c0.5-0.1,1.1-0.1,1.7-0.1c1,0,1.6,0.2,2,0.6c0.4,0.3,0.6,0.8,0.6,1.3c0,0.9-0.6,1.5-1.3,1.8v0
				c0.5,0.2,0.9,0.7,1,1.4c0.2,1,0.4,1.7,0.5,1.9h-0.9c-0.1-0.2-0.3-0.8-0.5-1.7c-0.2-1-0.6-1.3-1.4-1.4h-0.9v3h-0.9V42.4z
				 M232.1,45.6h0.9c1,0,1.6-0.5,1.6-1.3c0-0.9-0.7-1.3-1.6-1.3c-0.4,0-0.8,0-0.9,0.1V45.6z"/>
		</g>
	</g>
</g>
</svg>
