<svg xmlns="http://www.w3.org/2000/svg" xmlns:xlink="http://www.w3.org/1999/xlink" viewBox="0 0 234.02 52.86"><defs><style>.cls-1{font-size:41.61px;font-family:Galantic-Regular, Galantic;}.cls-1,.cls-2{fill:#1e1c2d;}.cls-3{fill:url(#linear-gradient);}.cls-4{font-size:10.1px;font-family:MyriadPro-Regular, Myriad Pro;}</style><linearGradient id="linear-gradient" x1="4.37" y1="44.21" x2="36.99" y2="9.15" gradientUnits="userSpaceOnUse"><stop offset="0" stop-color="#65499c"/><stop offset="0.07" stop-color="#884e97"/><stop offset="0.16" stop-color="#ad5492"/><stop offset="0.24" stop-color="#ca588e"/><stop offset="0.33" stop-color="#de5b8b"/><stop offset="0.42" stop-color="#eb5d8a"/><stop offset="0.5" stop-color="#ef5e89"/><stop offset="0.59" stop-color="#ef6085"/><stop offset="0.69" stop-color="#f06778"/><stop offset="0.79" stop-color="#f27164"/><stop offset="0.89" stop-color="#f48047"/><stop offset="0.99" stop-color="#f79422"/><stop offset="1" stop-color="#f7961d"/></linearGradient></defs><g id="Layer_2" data-name="Layer 2"><g id="Layer_1-2" data-name="Layer 1"><text class="cls-1" transform="translate(51.46 37.68)">HIEU PHAM</text><path class="cls-2" d="M19.22,2.82V22.65c-1.14-.61-2.28-1.24-3.33-1.86a12.45,12.45,0,0,0-2.23-1V0h0Z"/><path class="cls-2" d="M13.67,29.38c.95.52,2.86,1.51,5.09,2.68v2.32L13.67,31.8l-.46-.23V29.14l.08,0Z"/><path class="cls-2" d="M39.83,22.24a11.7,11.7,0,0,1-3.17,8.56l0,0a12.08,12.08,0,0,1-3,2.31c-3.24,1.75-6.28,1.5-9.67-.27-4.29-2.24-8.74-4.54-9.88-5.16a6.45,6.45,0,0,0-5.86.06,5,5,0,0,0-.64.46l0,0a5.08,5.08,0,0,0-1.48,2.3,6.56,6.56,0,0,0,2.27,7.11,6,6,0,0,0,1,.69,8.3,8.3,0,0,0,3.86.9V32.65l.46.24,5.09,2.58V44.6h-.08a19.31,19.31,0,0,1-4.22.44,16.77,16.77,0,0,1-6-1l-.18-.07a14.81,14.81,0,0,1-4.22-2.57l-.11-.11h0A11.76,11.76,0,0,1,0,32.5v-.13a13.11,13.11,0,0,1,.66-4.29s0-.11,0-.15A9.93,9.93,0,0,1,3.29,24,10.18,10.18,0,0,1,8,21.51a.67.67,0,0,1,.19-.05,9.11,9.11,0,0,1,6.44,1.25c3.49,2,8.08,4.36,10.62,5.57a6.28,6.28,0,0,0,7.15-1.51l0,0A6.78,6.78,0,0,0,34,22.25a7.44,7.44,0,0,0-3.93-6.81,7.19,7.19,0,0,0-3-.92h-.45V27a5.84,5.84,0,0,1-.67-.24c-1.13-.55-2.92-1.43-4.9-2.45V9a4,4,0,0,1,.46-.07,21,21,0,0,1,9.56.86A13.59,13.59,0,0,1,39.83,22.24Z"/><path class="cls-2" d="M27.06,35.23V52.86L21.5,50V32.78l2.15,1.12A15.36,15.36,0,0,0,27.06,35.23Z"/><path class="cls-3" d="M40.29,21.78a13.59,13.59,0,0,0-8.77-12.5,21,21,0,0,0-10-.79V23.85c2,1,3.77,1.9,4.89,2.45l.22.08a2.41,2.41,0,0,0,.45.16V14.05a7,7,0,0,1,3.49.94,7.41,7.41,0,0,1,3.93,6.8,6.62,6.62,0,0,1-2.1,5l0,0a6.3,6.3,0,0,1-6.7,1.05c-2.53-1.21-7.12-3.53-10.61-5.57A9.11,9.11,0,0,0,8.61,21l-.2.05a10.2,10.2,0,0,0-5.12,3,9.88,9.88,0,0,0-2.12,3.43l-.06.15a13.39,13.39,0,0,0-.65,4.29V32a12.08,12.08,0,0,0,1.19,5.13,11.83,11.83,0,0,0,2.73,3.62h0l.12.11a14.59,14.59,0,0,0,4.22,2.57l.18.08a19,19,0,0,0,9.85.68l.37-.08h.09V35.7l-.46-.23-5.09-2.58v5.9h-.46a8.18,8.18,0,0,1-3.41-.9,6.42,6.42,0,0,1-1-.69,6.56,6.56,0,0,1-2.26-7.11,5.31,5.31,0,0,1,1-1.84l0,0a4.31,4.31,0,0,1,1.1-.91,6.45,6.45,0,0,1,5.86-.07c1.14.62,5.59,2.93,9.87,5.16,3.39,1.77,6.44,2,9.68.27a11.45,11.45,0,0,0,2.53-1.85l0,0A11.71,11.71,0,0,0,40.29,21.78Zm-26.54,7-.08-.05V31.8l5.09,2.58.46.23v-3C16.63,30.25,14.5,29.14,13.75,28.73Z"/><text class="cls-4" transform="translate(51.46 49.28)">GRAPHIC DESIGNER - GAME DEVELOPER</text></g></g></svg>