<svg xmlns="http://www.w3.org/2000/svg" xmlns:xlink="http://www.w3.org/1999/xlink" width="260.85" height="44.59" viewBox="0 0 260.85 44.59"><defs><style>.cls-1,.cls-10{stroke-miterlimit:10;}.cls-1{stroke-width:2.18px;fill:url(#linear-gradient);stroke:url(#linear-gradient-2);}.cls-2{fill:#fff;}.cls-10,.cls-3{fill:#32429a;}.cls-4{fill:#006fb5;}.cls-5{fill:#00b9ff;}.cls-6{fill:#930fff;}.cls-7{fill:#560fbf;}.cls-8{fill:#bd6aff;}.cls-9{fill:url(#linear-gradient-3);}.cls-10{stroke:#fff;}.cls-11{fill:url(#linear-gradient-4);}</style><linearGradient id="linear-gradient" x1="1.09" y1="22.21" x2="44.96" y2="22.21" gradientUnits="userSpaceOnUse"><stop offset="0" stop-color="#0072ff"/><stop offset="1" stop-color="#9d00ff"/></linearGradient><linearGradient id="linear-gradient-2" x1="0" y1="22.21" x2="46.05" y2="22.21" xlink:href="#linear-gradient"/><linearGradient id="linear-gradient-3" x1="15.44" y1="9.33" x2="30.49" y2="9.33" xlink:href="#linear-gradient"/><linearGradient id="linear-gradient-4" x1="186.07" y1="21.61" x2="258.08" y2="21.61" xlink:href="#linear-gradient"/></defs><g id="Layer_2" data-name="Layer 2"><g id="Layer_1-2" data-name="Layer 1"><polygon class="cls-1" points="23.03 1.26 1.09 13.92 1.09 30.5 23.03 43.17 44.96 30.5 44.96 13.92 23.03 1.26"/><path class="cls-2" d="M22,3.61,4,14a2.13,2.13,0,0,0-1.07,1.84V28.58A2.14,2.14,0,0,0,4,30.43L22,40.81a2.13,2.13,0,0,0,2.13,0l18-10.38a2.15,2.15,0,0,0,1.06-1.85V15.84A2.14,2.14,0,0,0,42.08,14l-18-10.39A2.13,2.13,0,0,0,22,3.61Z"/><polygon class="cls-3" points="13.67 21.02 4.45 15.63 13.67 10.27 13.67 21.02"/><polygon class="cls-4" points="23.04 26.42 13.67 21.02 23.04 15.67 23.04 26.42"/><polygon class="cls-5" points="13.67 10.27 23.04 15.67 13.67 21.02 13.67 10.27"/><polygon class="cls-3" points="13.67 33.92 4.45 28.52 13.67 23.17 13.67 33.92"/><polygon class="cls-4" points="23.04 39.32 13.67 33.92 23.04 28.57 23.04 39.32"/><polygon class="cls-5" points="13.67 23.17 23.04 28.57 13.67 33.92 13.67 23.17"/><polygon class="cls-6" points="32.34 33.97 41.61 28.61 32.34 23.22 32.34 33.97"/><polygon class="cls-7" points="23.04 39.32 32.34 33.97 23.04 28.57 23.04 39.32"/><polygon class="cls-8" points="32.34 23.22 23.04 28.57 32.34 33.97 32.34 23.22"/><polygon class="cls-6" points="32.25 21.07 41.52 15.72 32.25 10.32 32.25 21.07"/><polygon class="cls-7" points="23.04 26.42 32.25 21.07 23.04 15.67 23.04 26.42"/><polygon class="cls-8" points="32.25 10.32 23.04 15.67 32.25 21.07 32.25 10.32"/><polygon class="cls-9" points="30.49 9.37 23.02 13.71 15.44 9.33 23.02 4.96 30.49 9.37"/><polygon class="cls-2" points="80.13 31.82 80.13 36.66 60.78 36.66 60.78 6.56 66.98 6.56 66.98 31.82 80.13 31.82"/><path class="cls-2" d="M98.49,6.56H92.72L81.54,36.66h6.59l2.08-6.35H101l2.09,6.35h6.62ZM91.81,25.45l3.81-11.6,3.81,11.6Z"/><path class="cls-2" d="M134.14,24.42a6.12,6.12,0,0,0-2.46-2.59,6.19,6.19,0,0,0-1.72-.69,6,6,0,0,0,.81-.38,6.43,6.43,0,0,0,2.63-2.56,7.27,7.27,0,0,0,.83-3.43,8.09,8.09,0,0,0-.76-3.65,6.8,6.8,0,0,0-2.21-2.56,10.35,10.35,0,0,0-3.53-1.51,20.32,20.32,0,0,0-4.7-.49h-10.5v30.1H124a15.7,15.7,0,0,0,5.92-1,7.69,7.69,0,0,0,3.69-3,8.89,8.89,0,0,0,1.26-4.87A7.64,7.64,0,0,0,134.14,24.42Zm-15.41-13H123a8.68,8.68,0,0,1,2.84.39,3,3,0,0,1,1.63,1.26,4.36,4.36,0,0,1,.53,2.27,3.78,3.78,0,0,1-.55,2.1,3.33,3.33,0,0,1-1.64,1.3,7.48,7.48,0,0,1-2.81.45h-4.3Zm9.51,18.44a3.49,3.49,0,0,1-1.53,1.43,5.77,5.77,0,0,1-2.67.53h-5.31V23.45h5.58a5.27,5.27,0,0,1,2.56.53,3.2,3.2,0,0,1,1.42,1.49,5.62,5.62,0,0,1,.44,2.3A4.33,4.33,0,0,1,128.24,29.86Z"/><polygon class="cls-2" points="159.74 31.82 159.74 36.66 139.55 36.66 139.55 6.56 159.72 6.56 159.72 11.42 145.75 11.42 145.75 18.82 157.66 18.82 157.66 23.53 145.75 23.53 145.75 31.82 159.74 31.82"/><polygon class="cls-2" points="182.71 31.82 182.71 36.66 163.36 36.66 163.36 6.56 169.56 6.56 169.56 31.82 182.71 31.82"/><polygon class="cls-10" points="205.56 31.82 205.56 36.66 186.21 36.66 186.21 6.56 192.42 6.56 192.42 31.82 205.56 31.82"/><path class="cls-10" d="M223.92,6.56h-5.77L207,36.66h6.59l2.09-6.35h10.82l2.08,6.35h6.62Zm-6.68,18.89,3.81-11.6,3.82,11.6Z"/><path class="cls-10" d="M259.57,24.42a6,6,0,0,0-2.46-2.59,6.25,6.25,0,0,0-1.71-.69,6.55,6.55,0,0,0,.8-.38,6.37,6.37,0,0,0,2.63-2.56,7.17,7.17,0,0,0,.84-3.43,8.09,8.09,0,0,0-.77-3.65,6.8,6.8,0,0,0-2.21-2.56,10.35,10.35,0,0,0-3.53-1.51,20.32,20.32,0,0,0-4.7-.49H238v30.1h11.51a15.75,15.75,0,0,0,5.93-1,7.69,7.69,0,0,0,3.69-3,8.89,8.89,0,0,0,1.26-4.87A7.65,7.65,0,0,0,259.57,24.42Zm-15.41-13h4.3a8.64,8.64,0,0,1,2.84.39,3,3,0,0,1,1.64,1.26,4.36,4.36,0,0,1,.52,2.27,3.86,3.86,0,0,1-.54,2.1,3.4,3.4,0,0,1-1.65,1.3,7.44,7.44,0,0,1-2.81.45h-4.3Zm9.51,18.44a3.49,3.49,0,0,1-1.53,1.43,5.77,5.77,0,0,1-2.67.53h-5.31V23.45h5.58a5.31,5.31,0,0,1,2.57.53,3.18,3.18,0,0,1,1.41,1.49,5.46,5.46,0,0,1,.45,2.3A4.33,4.33,0,0,1,253.67,29.86Z"/><polygon class="cls-11" points="205.56 31.82 205.56 36.66 186.21 36.66 186.21 6.56 192.42 6.56 192.42 31.82 205.56 31.82"/><path class="cls-11" d="M223.92,6.56h-5.77L207,36.66h6.59l2.09-6.35h10.82l2.08,6.35h6.62Zm-6.68,18.89,3.81-11.6,3.82,11.6Z"/><path class="cls-11" d="M259.57,24.42a6,6,0,0,0-2.46-2.59,6.25,6.25,0,0,0-1.71-.69,6.55,6.55,0,0,0,.8-.38,6.37,6.37,0,0,0,2.63-2.56,7.17,7.17,0,0,0,.84-3.43,8.09,8.09,0,0,0-.77-3.65,6.8,6.8,0,0,0-2.21-2.56,10.35,10.35,0,0,0-3.53-1.51,20.32,20.32,0,0,0-4.7-.49H238v30.1h11.51a15.75,15.75,0,0,0,5.93-1,7.69,7.69,0,0,0,3.69-3,8.89,8.89,0,0,0,1.26-4.87A7.65,7.65,0,0,0,259.57,24.42Zm-15.41-13h4.3a8.64,8.64,0,0,1,2.84.39,3,3,0,0,1,1.64,1.26,4.36,4.36,0,0,1,.52,2.27,3.86,3.86,0,0,1-.54,2.1,3.4,3.4,0,0,1-1.65,1.3,7.44,7.44,0,0,1-2.81.45h-4.3Zm9.51,18.44a3.49,3.49,0,0,1-1.53,1.43,5.77,5.77,0,0,1-2.67.53h-5.31V23.45h5.58a5.31,5.31,0,0,1,2.57.53,3.18,3.18,0,0,1,1.41,1.49,5.46,5.46,0,0,1,.45,2.3A4.33,4.33,0,0,1,253.67,29.86Z"/><path class="cls-2" d="M61.63,42.71H62a.46.46,0,0,0,.35-.12.42.42,0,0,0,.11-.32.36.36,0,0,0-.11-.29.43.43,0,0,0-.31-.11.49.49,0,0,0-.3.1.32.32,0,0,0-.12.26H61a.74.74,0,0,1,.13-.44,1,1,0,0,1,.37-.31,1.27,1.27,0,0,1,.52-.11,1.14,1.14,0,0,1,.78.24.82.82,0,0,1,.29.66.7.7,0,0,1-.13.39.87.87,0,0,1-.35.28.8.8,0,0,1,.4.28.87.87,0,0,1-.18,1.12,1.21,1.21,0,0,1-.81.25,1.17,1.17,0,0,1-.76-.24.83.83,0,0,1-.3-.66h.62a.38.38,0,0,0,.13.29.47.47,0,0,0,.33.11.54.54,0,0,0,.35-.11.44.44,0,0,0,.12-.32c0-.31-.17-.47-.51-.47h-.33Z"/><path class="cls-2" d="M63.59,44.55V41.42h1a1.53,1.53,0,0,1,.74.18,1.44,1.44,0,0,1,.51.53,1.66,1.66,0,0,1,.18.78v.15a1.59,1.59,0,0,1-.18.77,1.24,1.24,0,0,1-.51.53,1.41,1.41,0,0,1-.74.19Zm.65-2.61V44h.31a.69.69,0,0,0,.58-.25,1.1,1.1,0,0,0,.2-.7v-.17a1.13,1.13,0,0,0-.19-.72.7.7,0,0,0-.58-.25Z"/><path class="cls-2" d="M68.4,41.42l.81,2.27.8-2.27h.85v3.13h-.65v-.86l.06-1.48-.84,2.34H69l-.84-2.33.06,1.47v.86h-.64V41.42Z"/><path class="cls-2" d="M74,43.05a1.94,1.94,0,0,1-.17.82,1.2,1.2,0,0,1-.46.53,1.29,1.29,0,0,1-.7.19,1.35,1.35,0,0,1-.7-.18,1.3,1.3,0,0,1-.47-.54,1.71,1.71,0,0,1-.17-.8v-.15a1.94,1.94,0,0,1,.16-.82,1.3,1.3,0,0,1,.47-.54,1.38,1.38,0,0,1,.7-.19,1.36,1.36,0,0,1,.7.19,1.3,1.3,0,0,1,.47.54,1.92,1.92,0,0,1,.17.81Zm-.66-.14a1.39,1.39,0,0,0-.17-.75.58.58,0,0,0-.51-.25.57.57,0,0,0-.5.25,1.28,1.28,0,0,0-.18.74v.15a1.34,1.34,0,0,0,.18.75.56.56,0,0,0,.51.26.58.58,0,0,0,.5-.25,1.37,1.37,0,0,0,.17-.74Z"/><path class="cls-2" d="M76.93,43.51a1.11,1.11,0,0,1-.38.79,1.26,1.26,0,0,1-.88.29,1.17,1.17,0,0,1-1-.4,1.67,1.67,0,0,1-.35-1.12v-.19a2,2,0,0,1,.16-.79,1.22,1.22,0,0,1,1.15-.72,1.29,1.29,0,0,1,.87.29,1.2,1.2,0,0,1,.38.82h-.64a.72.72,0,0,0-.17-.44.64.64,0,0,0-.44-.14.57.57,0,0,0-.49.23,1.28,1.28,0,0,0-.16.72v.24a1.39,1.39,0,0,0,.15.74.54.54,0,0,0,.49.24.63.63,0,0,0,.44-.14.58.58,0,0,0,.17-.42Z"/><path class="cls-2" d="M78.34,43.29l-.34.37v.89h-.65V41.42H78v1.42l.28-.39.8-1h.8l-1.12,1.39,1.15,1.74h-.77Z"/><path class="cls-2" d="M82.53,41.42v2.06a1.06,1.06,0,0,1-.33.82,1.47,1.47,0,0,1-1.75,0,1.07,1.07,0,0,1-.33-.8V41.42h.65v2.07a.57.57,0,0,0,.15.44.54.54,0,0,0,.41.15c.36,0,.54-.2.55-.58V41.42Z"/><path class="cls-2" d="M83.7,43.45v1.1h-.64V41.42h1.22a1.49,1.49,0,0,1,.62.12.93.93,0,0,1,.41.37,1,1,0,0,1,.15.54.91.91,0,0,1-.32.73,1.29,1.29,0,0,1-.87.27Zm0-.53h.58a.57.57,0,0,0,.39-.12.43.43,0,0,0,.14-.34.5.5,0,0,0-.14-.37.48.48,0,0,0-.37-.15h-.6Z"/><path class="cls-2" d="M88.63,43.73a.34.34,0,0,0-.13-.28,1.5,1.5,0,0,0-.47-.21A3.23,3.23,0,0,1,87.5,43a.88.88,0,0,1-.53-.78.71.71,0,0,1,.14-.45.9.9,0,0,1,.41-.32,1.64,1.64,0,0,1,.6-.11,1.4,1.4,0,0,1,.6.12.94.94,0,0,1,.41.35.87.87,0,0,1,.15.5h-.65a.42.42,0,0,0-.14-.33.54.54,0,0,0-.38-.12.58.58,0,0,0-.37.1.32.32,0,0,0-.13.26.3.3,0,0,0,.16.26,1.63,1.63,0,0,0,.45.19,1.91,1.91,0,0,1,.8.41.83.83,0,0,1,.26.61.76.76,0,0,1-.31.64,1.32,1.32,0,0,1-.83.23,1.59,1.59,0,0,1-.66-.13A1,1,0,0,1,87,44.1a.88.88,0,0,1-.16-.53h.65c0,.34.2.51.62.51A.64.64,0,0,0,88.5,44,.32.32,0,0,0,88.63,43.73Z"/><path class="cls-2" d="M90.79,42.83l.66-1.41h.7l-1,2v1.14h-.65V43.41l-1-2h.71Z"/><path class="cls-2" d="M94,43.73a.32.32,0,0,0-.13-.28,1.43,1.43,0,0,0-.46-.21A3,3,0,0,1,92.9,43a.89.89,0,0,1-.53-.78.77.77,0,0,1,.14-.45,1,1,0,0,1,.42-.32,1.57,1.57,0,0,1,.6-.11,1.46,1.46,0,0,1,.6.12.91.91,0,0,1,.4.35.87.87,0,0,1,.15.5H94A.42.42,0,0,0,93.9,42a.56.56,0,0,0-.38-.12.58.58,0,0,0-.37.1.29.29,0,0,0-.13.26.31.31,0,0,0,.15.26,1.63,1.63,0,0,0,.45.19,2,2,0,0,1,.81.41.82.82,0,0,1,.25.61.73.73,0,0,1-.31.64,1.3,1.3,0,0,1-.83.23,1.59,1.59,0,0,1-.66-.13,1,1,0,0,1-.45-.36,1,1,0,0,1-.16-.53h.65c0,.34.21.51.62.51A.6.6,0,0,0,93.9,44,.29.29,0,0,0,94,43.73Z"/><path class="cls-2" d="M97.48,41.94h-1v2.61h-.65V41.94h-1v-.52h2.56Z"/><path class="cls-2" d="M99.73,43.19H98.49V44H100v.52h-2.1V41.42h2.09v.52H98.49v.75h1.24Z"/><path class="cls-2" d="M101.17,41.42l.81,2.27.8-2.27h.85v3.13H103v-.86l.06-1.48-.84,2.34h-.45l-.84-2.33.06,1.47v.86h-.64V41.42Z"/><path class="cls-2" d="M204.83,44.55V41.42h1a1.53,1.53,0,0,1,.74.18,1.34,1.34,0,0,1,.5.53,1.55,1.55,0,0,1,.19.78v.15a1.59,1.59,0,0,1-.18.77,1.24,1.24,0,0,1-.51.53,1.41,1.41,0,0,1-.74.19Zm.65-2.61V44h.31a.69.69,0,0,0,.58-.25,1.1,1.1,0,0,0,.2-.7v-.17a1.07,1.07,0,0,0-.2-.72.67.67,0,0,0-.57-.25Z"/><path class="cls-2" d="M209.58,43.19h-1.24V44h1.46v.52h-2.1V41.42h2.1v.52h-1.46v.75h1.24Z"/><path class="cls-2" d="M211.34,43.77l.71-2.35h.72l-1.09,3.13H211l-1.09-3.13h.72Z"/><path class="cls-2" d="M215,43.19h-1.24V44h1.46v.52h-2.11V41.42h2.1v.52h-1.45v.75H215Z"/><path class="cls-2" d="M216.19,44h1.37v.52h-2V41.42h.65Z"/><path class="cls-2" d="M220.37,43.05a1.94,1.94,0,0,1-.16.82,1.22,1.22,0,0,1-.47.53,1.27,1.27,0,0,1-.7.19,1.38,1.38,0,0,1-.7-.18,1.3,1.3,0,0,1-.47-.54,1.85,1.85,0,0,1-.17-.8v-.15a1.94,1.94,0,0,1,.17-.82,1.3,1.3,0,0,1,.47-.54,1.37,1.37,0,0,1,1.39,0,1.24,1.24,0,0,1,.47.54,1.78,1.78,0,0,1,.17.81Zm-.65-.14a1.3,1.3,0,0,0-.18-.75.64.64,0,0,0-1,0,1.46,1.46,0,0,0-.18.74v.15a1.34,1.34,0,0,0,.18.75.63.63,0,0,0,1,0,1.37,1.37,0,0,0,.18-.74Z"/><path class="cls-2" d="M221.49,43.45v1.1h-.65V41.42h1.22a1.54,1.54,0,0,1,.63.12,1,1,0,0,1,.41.37,1.09,1.09,0,0,1,.14.54.9.9,0,0,1-.31.73,1.3,1.3,0,0,1-.88.27Zm0-.53h.57a.58.58,0,0,0,.4-.12.46.46,0,0,0,.13-.34.5.5,0,0,0-.14-.37.47.47,0,0,0-.37-.15h-.59Z"/><path class="cls-2" d="M225.57,43.19h-1.24V44h1.46v.52h-2.1V41.42h2.09v.52h-1.45v.75h1.24Z"/><path class="cls-2" d="M226.17,44.55V41.42h1a1.5,1.5,0,0,1,.74.18,1.3,1.3,0,0,1,.51.53,1.66,1.66,0,0,1,.18.78v.15a1.71,1.71,0,0,1-.17.77,1.3,1.3,0,0,1-.51.53,1.43,1.43,0,0,1-.74.19Zm.64-2.61V44h.32a.7.7,0,0,0,.58-.25,1.1,1.1,0,0,0,.2-.7v-.17a1.12,1.12,0,0,0-.2-.72.68.68,0,0,0-.58-.25Z"/><path class="cls-2" d="M230.13,44.55V41.42h1.1a1.51,1.51,0,0,1,.87.21.77.77,0,0,1,.29.64.71.71,0,0,1-.12.41.63.63,0,0,1-.33.26.63.63,0,0,1,.38.24.67.67,0,0,1,.14.45.79.79,0,0,1-.29.68,1.23,1.23,0,0,1-.82.24Zm.65-1.82h.48c.32,0,.49-.14.49-.39a.38.38,0,0,0-.13-.31.66.66,0,0,0-.39-.09h-.45Zm0,.46V44h.55a.52.52,0,0,0,.36-.11.38.38,0,0,0,.13-.3.39.39,0,0,0-.45-.43Z"/><path class="cls-2" d="M233.91,42.83l.65-1.41h.71l-1,2v1.14h-.66V43.41l-1-2h.71Z"/><path class="cls-2" d="M239.21,44.55h-.65V43.21H237.3v1.34h-.64V41.42h.64v1.27h1.26V41.42h.65Z"/><path class="cls-2" d="M240.46,44.55h-.65V41.42h.65Z"/><path class="cls-2" d="M242.94,43.19H241.7V44h1.46v.52h-2.1V41.42h2.1v.52H241.7v.75h1.24Z"/><path class="cls-2" d="M245.91,41.42v2.06a1.06,1.06,0,0,1-.32.82,1.28,1.28,0,0,1-.88.29,1.21,1.21,0,0,1-.87-.29,1,1,0,0,1-.33-.8V41.42h.65v2.07a.57.57,0,0,0,.14.44.56.56,0,0,0,.41.15.51.51,0,0,0,.55-.58V41.42Z"/><path class="cls-2" d="M248.19,43.45v1.1h-.65V41.42h1.22a1.54,1.54,0,0,1,.63.12,1,1,0,0,1,.41.37,1.09,1.09,0,0,1,.14.54.9.9,0,0,1-.31.73,1.3,1.3,0,0,1-.88.27Zm0-.53h.57a.58.58,0,0,0,.4-.12.46.46,0,0,0,.13-.34.5.5,0,0,0-.14-.37.47.47,0,0,0-.37-.15h-.59Z"/><path class="cls-2" d="M252.94,44.55h-.65V43.21H251v1.34h-.64V41.42H251v1.27h1.26V41.42h.65Z"/><path class="cls-2" d="M255.31,43.91h-1.13l-.22.64h-.68l1.16-3.13h.6l1.18,3.13h-.69Zm-1-.53h.79l-.4-1.17Z"/><path class="cls-2" d="M257.35,41.42l.81,2.27.8-2.27h.85v3.13h-.65v-.86l.07-1.48-.85,2.34h-.44l-.85-2.33.07,1.47v.86h-.65V41.42Z"/></g></g></svg>